<svg width="87" height="17" viewBox="0 0 87 17" fill="none" xmlns="http://www.w3.org/2000/svg">
<path d="M8.5 0L10.4084 5.87336L16.584 5.87336L11.5878 9.50329L13.4962 15.3766L8.5 11.7467L3.50383 15.3766L5.41219 9.50329L0.416019 5.87336L6.59163 5.87336L8.5 0Z" fill="#FFAE00"/>
<path d="M26 0L28.0206 5.87336L34.5595 5.87336L29.2694 9.50329L31.2901 15.3766L26 11.7467L20.7099 15.3766L22.7306 9.50329L17.4405 5.87336L23.9794 5.87336L26 0Z" fill="#FFAE00"/>
<path d="M44 0L46.0206 5.87336L52.5595 5.87336L47.2694 9.50329L49.2901 15.3766L44 11.7467L38.7099 15.3766L40.7306 9.50329L35.4405 5.87336L41.9794 5.87336L44 0Z" fill="#FFAE00"/>
<path d="M61.5 0L63.4084 5.87336L69.584 5.87336L64.5878 9.50329L66.4962 15.3766L61.5 11.7467L56.5038 15.3766L58.4122 9.50329L53.416 5.87336L59.5916 5.87336L61.5 0Z" fill="#FFAE00"/>
<path d="M78.5 0L80.4084 5.87336L86.584 5.87336L81.5878 9.50329L83.4962 15.3766L78.5 11.7467L73.5038 15.3766L75.4122 9.50329L70.416 5.87336L76.5916 5.87336L78.5 0Z" fill="#FFAE00"/>
</svg>
