<svg width="13" height="12" viewBox="0 0 13 12" fill="none" xmlns="http://www.w3.org/2000/svg">
<path d="M1 6.9956L10 6.9956L6.71 10.288C6.61627 10.381 6.54188 10.4917 6.49111 10.6136C6.44034 10.7356 6.4142 10.8664 6.4142 10.9985C6.4142 11.1306 6.44034 11.2614 6.49111 11.3833C6.54188 11.5053 6.61627 11.616 6.71 11.709C6.89736 11.8954 7.15081 12 7.415 12C7.67919 12 7.93264 11.8954 8.12 11.709L12.41 7.4059C12.7856 7.03228 12.9978 6.52484 13 5.99488C12.9951 5.4684 12.7832 4.96504 12.41 4.59387L8.12 0.290772C8.02676 0.198123 7.9162 0.12476 7.79463 0.0748706C7.67306 0.024981 7.54286 -0.000458241 7.41147 6.18715e-06C7.28007 0.000470615 7.15005 0.0268311 7.02884 0.077579C6.90762 0.128327 6.79758 0.20247 6.705 0.295776C6.61242 0.389081 6.53911 0.499723 6.48925 0.621381C6.4394 0.74304 6.41398 0.873333 6.41444 1.00482C6.41491 1.13631 6.44125 1.26642 6.49196 1.38772C6.54267 1.50903 6.61676 1.61915 6.71 1.7118L10 4.99416L1 4.99416C0.734784 4.99416 0.480429 5.09959 0.292893 5.28726C0.105357 5.47494 5.48187e-07 5.72947 5.24984e-07 5.99488C5.01781e-07 6.26029 0.105357 6.51483 0.292893 6.7025C0.480429 6.89017 0.734784 6.9956 1 6.9956Z" fill="#2C2C2A"/>
</svg>
