<svg width="40" height="40" viewBox="0 0 40 40" fill="none" xmlns="http://www.w3.org/2000/svg">
<circle cx="20" cy="20" r="20" fill="#8C7A5B"/>
<path d="M17.3333 12.6667C17.3333 11.1939 18.5272 10 20 10C21.4728 10 22.6667 11.1939 22.6667 12.6667V27.3333C22.6667 28.8061 21.4728 30 20 30C18.5272 30 17.3333 28.8061 17.3333 27.3333V12.6667Z" fill="white"/>
<path d="M27.3333 17.3333C28.8061 17.3333 30 18.5272 30 20C30 21.4728 28.8061 22.6667 27.3333 22.6667L12.6667 22.6667C11.1939 22.6667 10 21.4728 10 20C10 18.5272 11.1939 17.3333 12.6667 17.3333L27.3333 17.3333Z" fill="white"/>
</svg>
